<?xml version="1.0" encoding="UTF-8"?>
<svg id="_图层_1" data-name="图层_1" xmlns="http://www.w3.org/2000/svg" version="1.1" xmlns:xlink="http://www.w3.org/1999/xlink" viewBox="0 0 647.12 840.99">
  <!-- Generator: Adobe Illustrator 29.0.0, SVG Export Plug-In . SVG Version: 2.1.0 Build 186)  -->
  <defs>
    <style>
      .st0 {
        fill: #8c8c8c;
        opacity: .37;
      }

      .st1, .st2 {
        fill: #fcfdff;
      }

      .st3 {
        opacity: .4;
      }

      .st4 {
        fill: #070001;
      }

      .st2 {
        filter: url(#drop-shadow-2);
      }
    </style>
    <filter id="drop-shadow-2" x="155.41" y="251.87" width="304.08" height="348.24" filterUnits="userSpaceOnUse">
      <feOffset dx="2.81" dy="2.81"/>
      <feGaussianBlur result="blur" stdDeviation="4.68"/>
      <feFlood flood-color="#7f7f80" flood-opacity=".75"/>
      <feComposite in2="blur" operator="in"/>
      <feComposite in="SourceGraphic"/>
    </filter>
  </defs>
  <g>
    <path class="st2" d="M439.36,389.64c-7.76-16.6-13.16-16.76-14.47-34.82-2.03-28.14-1.39-91.63-1.39-91.63l-117.98-.07,1.04,49.96s2.19,45.08-7.47,59.38c-14.36,21.26-61.17,57.74-83.54,73.85-22.37,16.11-42.54,37.89-46.71,63.84-4.18,25.95-1.98,33.81,3.58,47.13,4.92,11.78,18.02,18.97,34.6,23.27,16.7,4.33,39.97,3.88,58.47-5.67,18.49-9.55,33.79-25.5,59.55-55.52,26.29-30.65,28.21-27.79,44.02-41.51,15.81-13.72,41.62-20.67,58.62-32.9,17-12.23,17.29-43.31,11.68-55.31"/>
    <g>
      <path class="st1" d="M249.14,513.49c-2.91-10.17-11.65-17.59-22.16-18.8l-49.82-5.73c-4.22,7.1-7.63,14.74-8.76,21.78-4.18,25.95-1.59,33.4,3.98,46.71,4.92,11.78,18.02,18.97,34.6,23.27,16.7,4.33,39.97,3.88,58.47-5.67.36-.19.74-.41,1.11-.61l-17.42-60.96Z"/>
      <path class="st1" d="M427.63,445.14c17-12.23,17.29-43.31,11.68-55.32-5.49-11.76-9.8-15.29-12.31-22.75l-63.39,25.04,27.04,72.4c12.74-6.33,26.52-11.85,36.98-19.37Z"/>
    </g>
    <path class="st4" d="M434.72,499.17c.13-.3.26-.27.38.01-.13,0-.25,0-.38-.01Z"/>
    <path class="st4" d="M435.65,499.15c.11-.15.21-.29.32-.44.02.24.03.46-.32.44Z"/>
  </g>
  <g class="st3">
    <path class="st0" d="M383.49,397.2c4.43,2.67,22.99,4.74,27.57,5.83,4.58,1.09,13.98,1.61,16.99,4.29,3.01,2.67,5.94,5.03,5.94,5.03,0,0-2.3-3.94-7.29-7.4-4.98-3.46-43.21-7.76-43.21-7.76Z"/>
    <path class="st0" d="M174.31,508.05s7.33,2.43,12.57,3.34c5.24.91,17.65,2.86,21.45,4.38,3.8,1.52,12.88,5.38,14.95,7.87,2.07,2.49,2.54,3.75,2.54,3.75,0,0-7.24,2.82-10.59,4.27-3.35,1.45-13.12,6.85-15.53,8.93-2.41,2.08-2.87,3.65-2.87,3.65,0,0,4.85-4.42,11.24-7.52,6.39-3.11,19.99-8.35,19.99-8.35,0,0,.87-.74-2.63-4.96-3.5-4.22-15.36-8.67-19.18-9.96-3.82-1.3-31.92-5.4-31.92-5.4Z"/>
  </g>
</svg>