<?xml version="1.0" encoding="UTF-8"?>
<svg id="_图层_1" data-name="图层_1" xmlns="http://www.w3.org/2000/svg" version="1.1" xmlns:xlink="http://www.w3.org/1999/xlink" viewBox="0 0 647.12 840.99">
  <!-- Generator: Adobe Illustrator 29.0.0, SVG Export Plug-In . SVG Version: 2.1.0 Build 186)  -->
  <defs>
    <style>
      .st0 {
        fill: #fcfdff;
      }

      .st1, .st2, .st3, .st4 {
        fill: none;
      }

      .st5 {
        fill: url(#_新建图案_35);
        opacity: .16;
      }

      .st6 {
        fill: #8c8c8c;
      }

      .st2 {
        stroke-width: .38px;
      }

      .st2, .st3, .st4 {
        stroke-miterlimit: 10;
      }

      .st2, .st4 {
        opacity: .18;
        stroke: #919191;
      }

      .st3 {
        stroke: #858585;
      }

      .st4 {
        stroke-width: .38px;
      }
    </style>
    <pattern id="_新建图案_35" data-name="新建图案 35" x="0" y="0" width="28.35" height="75.82" patternTransform="translate(-8864.86 288.3) scale(.33 .76)" patternUnits="userSpaceOnUse" viewBox="0 0 28.35 75.82">
      <g>
        <rect class="st1" width="28.35" height="75.82"/>
        <line class="st3" x1="25.51" y1="0" x2="25.51" y2="75.82"/>
        <line class="st3" x1="19.84" y1="0" x2="19.84" y2="75.82"/>
        <line class="st3" x1="14.17" y1="0" x2="14.17" y2="75.82"/>
        <line class="st3" x1="8.5" y1="0" x2="8.5" y2="75.82"/>
        <line class="st3" x1="2.83" y1="0" x2="2.83" y2="75.82"/>
      </g>
    </pattern>
  </defs>
  <rect class="st6" width="647.12" height="840.99"/>
  <g>
    <rect class="st5" x="256.03" y="138.3" width="134.62" height="28.8"/>
    <line class="st2" x1="256" y1="167.12" x2="390.67" y2="167.12"/>
  </g>
  <g>
    <rect class="st0" x="257.21" y="138.3" width="134.62" height="28.8"/>
    <line class="st4" x1="257.18" y1="167.12" x2="391.85" y2="167.12"/>
  </g>
  <path class="st0" d="M391.77,650.79c-1.04,13.97-14.68,47.86-29.07,55.12-11.64,5.87-23.3,5.96-39.58,5.96-14.76,0-25.75-1.6-36.84-6.52-16.25-7.21-28.22-39.92-29.07-54.56h134.55Z"/>
</svg>